<svg width="84" height="25" viewBox="0 0 84 25" fill="none" xmlns="http://www.w3.org/2000/svg">
<g clip-path="url(#clip0_10204_17)">
<path d="M14.7721 0.859894C15.1453 1.04525 15.565 1.57755 15.8467 1.8923C18.2636 4.59225 19.5314 8.03105 19.3072 11.6509C19.0901 15.1538 17.3602 18.2642 14.7637 20.563C14.272 20.2269 13.8221 19.7485 13.4287 19.3038C11.2229 16.8091 10.0139 13.3041 10.2245 9.97885C10.4417 6.55047 12.1942 3.12 14.7721 0.859894Z" fill="#0D0B0A"/>
<path d="M25.0582 5.76266C25.0653 5.77479 25.0735 5.78644 25.0797 5.7991C25.2172 6.07921 25.257 6.52363 25.2919 6.83453C25.4736 8.45131 25.3232 10.0723 24.7546 11.6031C23.334 15.4276 20.0503 18.2428 16.4197 19.9117C16.3769 19.9112 16.4056 19.9146 16.3403 19.8766C16.5622 19.5137 16.8716 19.1893 17.1276 18.8483C17.5191 18.3158 17.8739 17.7576 18.1894 17.1774C19.3015 15.1309 19.8334 12.8803 19.8317 10.5592C19.8313 9.90003 19.8162 9.24156 19.6254 8.60535C19.9659 8.22747 20.3831 7.90897 20.7881 7.60251C22.0932 6.61483 23.4082 5.92747 25.0582 5.76266Z" fill="#0D0B0A"/>
<path d="M4.44035 5.77867C4.63628 5.78622 4.83396 5.81165 5.02774 5.84113C6.51914 6.06804 7.82405 6.86223 8.98911 7.78137C9.31427 8.0379 9.67004 8.30539 9.91487 8.6425C9.29542 11.825 10.117 15.162 11.7626 17.9144C12.0254 18.3519 12.3093 18.7762 12.6134 19.1863C12.7585 19.3817 12.9313 19.559 13.0615 19.7641L13.0154 19.824C10.3021 18.6636 7.76028 16.6103 6.12513 14.1561C4.4097 11.5811 3.84247 8.80739 4.44035 5.77867Z" fill="#0D0B0A"/>
<path d="M27.7125 12.8808C28.1451 12.8291 29.1147 12.7746 29.4773 13.0055C29.4956 13.06 29.5011 13.0654 29.503 13.1317C29.5102 13.3855 29.3444 13.7654 29.2584 14.0022C28.683 15.6361 27.6978 17.0951 26.3972 18.2394C23.8513 20.4905 20.5513 21.2981 17.2185 21.0838C16.589 21.018 15.94 20.9742 15.335 20.7813C18.1273 19.9224 20.7835 18.1678 22.708 15.9766C23.1811 15.4378 23.5279 14.8123 23.9882 14.2706C24.8618 13.2422 26.4459 12.9704 27.7125 12.8808Z" fill="#0D0B0A"/>
<path d="M1.03684 12.966C2.3381 12.8126 4.1038 13.0269 5.17562 13.837C5.81285 14.3188 6.19686 15.2132 6.72352 15.8221C8.37045 17.7293 10.4332 19.2331 12.7528 20.2176C13.2467 20.4291 13.7552 20.6497 14.2775 20.7783L13.2335 20.9527C10.1933 21.3902 7.04279 20.847 4.44149 19.1557C2.67004 18.0036 1.42275 16.4238 0.689454 14.4533C0.581795 14.1644 0.420648 13.8507 0.3656 13.5496C0.333449 13.3738 0.361752 13.2578 0.46449 13.1087C0.628025 12.9884 0.840615 12.9899 1.03684 12.966Z" fill="#0D0B0A"/>
<path d="M54.1319 10.3387C55.1452 10.3303 56.2505 10.2396 57.2511 10.3856C57.8949 10.4795 58.5489 10.7098 58.9405 11.2615C59.2284 11.668 59.3226 12.2388 59.2335 12.7244C59.1243 13.3186 58.7475 13.6622 58.2706 13.9822C58.3851 14.0305 58.4979 14.083 58.6075 14.1414C59.0289 14.3694 59.3271 14.7646 59.4503 15.2254C59.6187 15.8551 59.4836 16.5037 59.17 17.0623C59.0994 17.1695 59.016 17.2642 58.9229 17.3524C57.9612 18.2643 55.853 18.0877 54.6104 18.076C54.3713 18.074 54.0563 18.0956 53.878 17.9139C53.8347 17.8228 53.8175 17.7627 53.8116 17.66C53.7298 16.3253 53.8043 14.9404 53.8038 13.6014C53.8033 12.6529 53.7084 11.4184 53.8321 10.5018C53.9276 10.3822 53.9882 10.383 54.1319 10.3387ZM57.5265 15.032C56.9898 14.6819 56.086 14.783 55.463 14.784L55.4649 16.5135C56.1552 16.5184 56.962 16.6249 57.5743 16.2547C57.7185 16.0423 57.8633 15.7263 57.8214 15.4617C57.7912 15.2695 57.6861 15.1362 57.5265 15.032ZM57.2706 11.9569C56.7586 11.6488 56.0398 11.7272 55.464 11.7303V13.3904C56.0817 13.3953 56.8187 13.4863 57.3585 13.1375C57.5036 12.9296 57.6438 12.6313 57.589 12.369C57.549 12.1764 57.4347 12.0555 57.2706 11.9569Z" fill="#0D0B0A"/>
<path d="M44.6848 12.136C44.8392 12.1232 44.9948 12.1312 45.1467 12.1604C45.6103 12.2533 45.8363 12.5945 46.0842 12.9583C46.0983 12.8311 46.1082 12.6938 46.1379 12.5696C46.1686 12.4401 46.2393 12.3604 46.3557 12.2981C46.5429 12.1985 46.9451 12.1921 47.1409 12.2649C47.2839 12.3182 47.4431 12.4423 47.4924 12.592C47.6381 13.0349 47.5816 17.3703 47.4973 17.9631C47.4417 18.3537 47.3205 18.739 47.1233 19.0813C46.8057 19.6337 46.2649 19.9938 45.6575 20.1585C44.8011 20.3898 43.8271 20.3161 43.0627 19.8557C42.7217 19.6506 42.562 19.3866 42.4719 19.0061C42.5007 18.8687 42.5347 18.7349 42.6526 18.6458C43.0354 18.3565 43.8625 18.8421 44.2873 18.9212C44.6532 18.9889 45.0478 18.9519 45.3518 18.7219C45.8531 18.3439 45.936 17.6449 46.0217 17.0686C45.6861 17.4272 45.3672 17.7159 44.8723 17.8372C44.3361 17.969 43.7486 17.8784 43.2873 17.5725C42.6799 17.1701 42.3412 16.4795 42.217 15.7786C42.0656 14.9252 42.1978 13.9043 42.7151 13.1897C43.2086 12.509 43.8873 12.2581 44.6848 12.136ZM44.7756 13.4426C44.3763 13.5931 44.1556 13.7781 43.9846 14.176C43.7737 14.6651 43.7678 15.374 43.9739 15.8645C44.0825 16.1232 44.3007 16.396 44.5754 16.4885C44.7566 16.5493 44.9758 16.5232 45.1623 16.51C45.4912 16.3926 45.6783 16.2539 45.8342 15.9348C46.0742 15.4443 46.0817 14.7528 45.8987 14.2405C45.7925 13.9429 45.5824 13.6504 45.2844 13.5217C45.1319 13.456 44.9403 13.4344 44.7756 13.4426Z" fill="#0D0B0A"/>
<path d="M77.8532 12.1822C78.2453 12.1302 78.6316 12.1478 79.0018 12.3012C79.5133 12.513 79.7788 12.8988 79.9815 13.3913C80.0853 13.1312 80.1997 12.8691 80.3834 12.6538C80.6737 12.3121 81.0542 12.1762 81.4946 12.1593C82.0017 12.1398 82.5215 12.2563 82.8936 12.6206C83.1382 12.8603 83.2882 13.1813 83.3701 13.5102C83.5878 14.386 83.466 16.2679 83.469 17.2578C83.4694 17.4093 83.4884 17.8881 83.3701 17.9778C83.1684 18.1297 82.4542 18.0961 82.2029 18.0606C82.0562 18.0401 81.9656 17.9612 81.9052 17.8282C81.8122 17.6236 81.8619 17.2582 81.8648 17.0317C81.8745 16.2976 82.0553 14.2686 81.6207 13.7333C81.5209 13.6105 81.3796 13.5335 81.2203 13.5223C80.9865 13.5058 80.6888 13.5866 80.5188 13.7532C79.9167 14.3432 80.1164 16.4408 80.1213 17.2656C80.1228 17.4322 80.1286 17.6143 80.1081 17.7795C80.0989 17.8526 80.0736 17.9373 80.0068 17.9753C79.7501 18.1224 79.1256 18.1005 78.8425 18.0343C78.6949 17.9997 78.6321 17.95 78.5795 17.8068C78.4923 17.5695 78.541 17.2183 78.5454 16.9674C78.5585 16.2318 78.7329 14.4026 78.3588 13.8512C78.2463 13.6855 78.0792 13.5847 77.8824 13.5525C77.6588 13.516 77.4259 13.5457 77.2437 13.6894C76.5116 14.2672 76.7118 16.2922 76.7152 17.1292C76.7162 17.3303 76.7571 17.6182 76.7103 17.8063C76.6913 17.8847 76.6684 17.9325 76.6012 17.9768C76.3659 18.1312 75.7277 18.0981 75.4462 18.0426C75.3278 18.0192 75.2523 17.9466 75.2011 17.8394C75.129 17.6869 75.1076 13.2861 75.1344 12.8501C75.1417 12.7288 75.167 12.5992 75.2226 12.4899C75.2942 12.3497 75.414 12.2584 75.5611 12.2108C75.9095 12.0984 76.344 12.2229 76.6519 12.3939C76.7259 12.6689 76.6728 13.0289 76.6611 13.3158C76.6972 13.2427 76.7337 13.1696 76.7712 13.0975C77.043 12.5724 77.2983 12.3584 77.8532 12.1822Z" fill="#0D0B0A"/>
<path d="M71.5206 12.2048C73.1413 12.1712 74.4885 13.4473 74.542 15.068C74.5956 16.6882 73.3365 18.0501 71.7169 18.1237C70.6515 18.1724 69.6418 17.6441 69.0743 16.7409C68.5074 15.8374 68.4693 14.699 68.9756 13.7604C69.4817 12.8213 70.4543 12.227 71.5206 12.2048ZM71.3213 13.4928C70.8859 13.6862 70.6491 13.9081 70.4805 14.363C70.2789 14.907 70.3114 15.6669 70.5694 16.1862C70.7087 16.4658 70.9251 16.6933 71.2256 16.7936C71.4315 16.8627 71.6243 16.8735 71.835 16.8239C72.2525 16.649 72.5024 16.4264 72.6739 15.9987C72.8885 15.4625 72.8864 14.7459 72.6397 14.2204C72.4853 13.8916 72.2102 13.6205 71.8575 13.5163C71.6851 13.4652 71.4981 13.4768 71.3213 13.4928Z" fill="#0D0B0A"/>
<path d="M38.7047 12.2135C40.3359 12.1398 41.7184 13.401 41.7945 15.0318C41.871 16.6632 40.6119 18.048 38.9811 18.1266C37.3468 18.205 35.9589 16.9429 35.8824 15.3082C35.8062 13.6739 37.0702 12.2875 38.7047 12.2135ZM39.1656 13.5318C38.9767 13.4672 38.7823 13.468 38.5865 13.4928C38.1497 13.7086 37.8998 13.9343 37.733 14.4117C37.5444 14.9524 37.5723 15.7245 37.8443 16.232C37.9928 16.509 38.2172 16.7117 38.5201 16.8043C38.7061 16.8613 38.9169 16.8662 39.1061 16.8209C39.5224 16.648 39.7667 16.4238 39.9342 15.9967C40.1466 15.455 40.1291 14.7404 39.8834 14.2115C39.7391 13.9008 39.4938 13.6443 39.1656 13.5318Z" fill="#0D0B0A"/>
<path d="M64.8877 12.2457C65.9383 12.0759 66.9983 12.4839 67.6651 13.3131C68.3314 14.1426 68.5014 15.2661 68.1094 16.2555C67.7168 17.2444 66.8233 17.9472 65.7696 18.0943C64.1644 18.3189 62.6772 17.2087 62.4356 15.606C62.1937 14.0035 63.2881 12.5046 64.8877 12.2457ZM65.1289 13.4898C64.6905 13.6764 64.4381 13.8884 64.2608 14.3424C64.0528 14.8748 64.0734 15.6122 64.3194 16.1295C64.468 16.4415 64.7207 16.6981 65.0547 16.8043C65.2218 16.8578 65.4116 16.857 65.584 16.8355C66.0212 16.6509 66.2759 16.4442 66.4571 15.9898C66.6674 15.4618 66.664 14.7332 66.419 14.2174C66.2733 13.911 66.0256 13.6526 65.7012 13.5377C65.5182 13.473 65.3202 13.4738 65.1289 13.4898Z" fill="#0D0B0A"/>
<path d="M50.1029 12.1848C50.4731 12.1409 50.83 12.1482 51.1947 12.2327C51.7486 12.3611 52.213 12.6831 52.4955 13.18C52.6465 13.4459 52.7339 13.7383 52.7758 14.0403C52.8405 14.5073 52.8771 17.4594 52.7709 17.8655C52.6818 17.9793 52.5923 18.0204 52.4535 18.0501C52.2168 18.1003 51.6977 18.1307 51.5063 17.9534C51.3392 17.799 51.3734 17.4759 51.3715 17.2679C51.0939 17.678 50.8145 18.0088 50.31 18.135C49.7463 18.2753 49.2234 18.1105 48.7377 17.8304C48.531 17.6397 48.3737 17.4445 48.2846 17.1741C48.1346 16.7178 48.1828 16.1023 48.4164 15.6819C48.983 14.6623 50.3181 14.7232 51.2943 14.4358L51.3549 14.4173C51.3155 14.2953 51.2775 14.1707 51.227 14.053C50.6746 12.7794 49.2973 14.1706 48.6313 13.8206C48.4968 13.75 48.3997 13.6069 48.3656 13.4612C48.32 13.2675 48.3723 13.1424 48.4779 12.9817C48.8355 12.4362 49.5058 12.2987 50.1029 12.1848ZM51.2895 15.5882C50.8836 15.6997 50.1223 15.8225 49.8803 16.1907C49.8016 16.311 49.795 16.4685 49.8461 16.6009C49.8822 16.6942 49.9528 16.776 50.015 16.8528C50.4345 16.8811 50.6974 16.8502 51.018 16.5589C51.2123 16.3816 51.3905 16.0968 51.3813 15.8225C51.3788 15.7544 51.3597 15.6852 51.3441 15.6194L51.2895 15.5882Z" fill="#0D0B0A"/>
<path d="M33.5486 13.2812C33.6939 12.8194 34.8251 10.6097 35.1855 10.4022C35.3727 10.2944 36.3721 10.278 36.5728 10.3698C36.7016 10.4288 36.7155 10.4636 36.7739 10.5839C36.671 11.156 35.4069 13.0761 35.033 13.7021L34.376 14.7943C34.3786 15.4509 34.4941 17.4551 34.2652 17.9305C34.1848 17.9919 34.128 18.026 34.0275 18.0494C33.7192 18.1215 33.1054 18.1 32.8335 17.929C32.623 17.6519 32.7331 15.3511 32.7335 14.842C32.3977 14.3052 30.2305 10.8449 30.2877 10.5144C30.3593 10.4114 30.4055 10.3856 30.5215 10.34C30.887 10.3292 31.6303 10.2323 31.9328 10.4159C32.3252 10.6542 33.4027 12.795 33.5486 13.2812Z" fill="#0D0B0A"/>
<path d="M60.3861 10.339C60.7695 10.3291 61.3969 10.2332 61.7277 10.4313C61.8207 11.0629 61.7842 11.7313 61.7857 12.3683L61.7896 15.3184C61.7896 16.0886 61.8743 17.0156 61.7749 17.7717C61.7555 17.9222 61.6624 17.9714 61.5533 18.0576C61.1538 18.0708 60.5396 18.1697 60.2107 17.91C60.1333 17.6148 60.0846 10.8047 60.1591 10.5357C60.1946 10.4083 60.2784 10.3937 60.3861 10.339Z" fill="#0D0B0A"/>
<path d="M14.929 20.9844C15.4579 21.1725 15.9901 21.323 16.5449 21.4131C17.5008 21.568 18.6113 21.5227 19.4701 22.0206C20.1042 22.3884 20.7536 23.2496 20.9329 23.9638C20.9657 24.0948 20.9562 24.1056 20.8891 24.2142C20.2254 24.4534 19.5807 24.3964 18.9203 24.1801C17.3294 23.6598 15.7077 22.5004 14.929 20.9844Z" fill="#0D0B0A"/>
<path d="M14.6297 20.9883C14.6632 20.9854 14.6954 21.0029 14.7279 21.0122C14.7262 21.0273 14.7265 21.0429 14.7229 21.058C14.6412 21.3965 13.3315 22.7771 13.0291 23.0163C11.984 23.8415 10.4323 24.4967 9.08407 24.3355C9.04802 24.3277 8.99794 24.3179 8.96511 24.3028C8.89252 24.2692 8.84654 24.2424 8.82739 24.164C8.77629 23.9531 8.89618 23.7085 8.99205 23.5253C9.3009 22.9349 9.78453 22.2422 10.3904 21.9231C11.1373 21.5305 12.2401 21.532 13.0701 21.3843C13.6018 21.2898 14.1142 21.1456 14.6297 20.9883Z" fill="#0D0B0A"/>
</g>
<defs>
<clipPath id="clip0_10204_17">
<rect width="83.147" height="23.5097" fill="white" transform="translate(0.353027 0.859894)"/>
</clipPath>
</defs>
</svg>
