<svg xmlns="http://www.w3.org/2000/svg" aria-hidden="true" style="position:absolute;width:0;height:0;overflow:hidden">
  <defs>
    <symbol id="icon-menu" viewBox="0 0 32 32">
      <path d="M5.333 8h21.333v2.667H5.333V8zm0 6.667h21.333v2.667H5.333v-2.667zm0 6.666h21.333V24H5.333v-2.667z"/>
    </symbol>
    <symbol id="icon-x" viewBox="0 0 32 32">
      <path d="m21.589 8.459-5.657 5.656-5.656-5.656-1.885 1.885L14.047 16l-5.656 5.656 1.885 1.885 5.656-5.656 5.657 5.656 1.885-1.885L17.818 16l5.656-5.656-1.885-1.885z"/>
    </symbol>
    <symbol id="icon-youtube" viewBox="0 0 31 32">
      <path d="M27.639 9.86a3.199 3.199 0 0 0-2.255-2.261C23.38 7.049 15.36 7.04 15.36 7.04s-8.018-.009-10.024.517a3.272 3.272 0 0 0-2.261 2.275c-.529 2.004-.534 6.162-.534 6.162s-.005 4.178.52 6.162a3.204 3.204 0 0 0 2.257 2.259c2.025.55 10.022.559 10.022.559s8.019.009 10.024-.516a3.221 3.221 0 0 0 2.262-2.257c.53-2.003.534-6.159.534-6.159s.026-4.179-.521-6.184zm-14.844 9.986.006-7.68 6.665 3.846-6.671 3.834z"/>
    </symbol>
    <symbol id="icon-linkedin" viewBox="0 0 32 32">
      <path d="M6 4.323h20c1.105 0 2 0.895 2 2v20c0 1.105-0.895 2-2 2h-20c-1.105 0-2-0.895-2-2v-20c0-1.105 0.895-2 2-2zM11.361 9.66c0.008-1.117-0.844-1.978-2.018-2.004-1.157-0.026-2.047 0.879-2.053 2.006-0.006 1.198 0.924 2.047 1.991 2.053 1.133 0.006 2.087-0.78 2.079-2.055zM16.373 13.339h-3.362v11.413h3.551v-0.266c0-0.507-0-1.013-0.001-1.52-0.001-1.352-0.002-2.705 0.005-4.056 0.002-0.328 0.017-0.669 0.101-0.983 0.317-1.17 1.369-1.926 2.543-1.74 0.754 0.118 1.252 0.555 1.462 1.266 0.129 0.444 0.188 0.922 0.193 1.386 0.015 1.397 0.013 2.794 0.011 4.191-0.001 0.493-0.002 0.986-0.002 1.479v0.242h3.563v-0.274c0-0.603-0-1.205-0.001-1.808-0.001-1.506-0.001-3.012 0.003-4.519 0.002-0.681-0.071-1.352-0.238-2.010-0.249-0.979-0.765-1.789-1.603-2.374-0.594-0.416-1.247-0.684-1.976-0.714-0.083-0.003-0.167-0.008-0.251-0.013-0.373-0.020-0.752-0.041-1.109 0.031-1.020 0.204-1.916 0.671-2.593 1.494-0.079 0.094-0.156 0.19-0.27 0.333l-0.026 0.032v-1.592zM7.576 24.755h3.534v-11.409h-3.534v11.409z"></path>
    </symbol>
    <symbol id="icon-linkedin-nopath" viewBox="0 0 32 32">
      <path d="M6 4.323h20c1.105 0 2 0.895 2 2v20c0 1.105-0.895 2-2 2h-20c-1.105 0-2-0.895-2-2v-20c0-1.105 0.895-2 2-2zM11.361 9.66c0.008-1.117-0.844-1.978-2.018-2.004-1.157-0.026-2.047 0.879-2.053 2.006-0.006 1.198 0.924 2.047 1.991 2.053 1.133 0.006 2.087-0.78 2.079-2.055zM16.373 13.339h-3.362v11.413h3.551v-0.266c0-0.507-0-1.013-0.001-1.52-0.001-1.352-0.002-2.705 0.005-4.056 0.002-0.328 0.017-0.669 0.101-0.983 0.317-1.17 1.369-1.926 2.543-1.74 0.754 0.118 1.252 0.555 1.462 1.266 0.129 0.444 0.188 0.922 0.193 1.386 0.015 1.397 0.013 2.794 0.011 4.191-0.001 0.493-0.002 0.986-0.002 1.479v0.242h3.563v-0.274c0-0.603-0-1.205-0.001-1.808-0.001-1.506-0.001-3.012 0.003-4.519 0.002-0.681-0.071-1.352-0.238-2.010-0.249-0.979-0.765-1.789-1.603-2.374-0.594-0.416-1.247-0.684-1.976-0.714-0.083-0.003-0.167-0.008-0.251-0.013-0.373-0.020-0.752-0.041-1.109 0.031-1.020 0.204-1.916 0.671-2.593 1.494-0.079 0.094-0.156 0.19-0.27 0.333l-0.026 0.032v-1.592zM7.576 24.755h3.534v-11.409h-3.534v11.409z"></path>
    </symbol>
    <symbol id="icon-instagram" viewBox="0 0 32 32">
      <path d="M21.333 4.323h-10.667c-3.682 0-6.667 2.985-6.667 6.667v10.667c0 3.682 2.985 6.667 6.667 6.667h10.667c3.682 0 6.667-2.985 6.667-6.667v-10.667c0-3.682-2.985-6.667-6.667-6.667zM25.667 21.656c-0.007 2.39-1.943 4.326-4.333 4.333h-10.667c-2.39-0.007-4.326-1.943-4.333-4.333v-10.667c0.007-2.39 1.943-4.326 4.333-4.333h10.667c2.39 0.007 4.326 1.943 4.333 4.333v10.667zM22.333 11.323c-0.736 0-1.333-0.597-1.333-1.333s0.597-1.333 1.333-1.333c0.736 0 1.333 0.597 1.333 1.333s-0.597 1.333-1.333 1.333zM16 10.323c1.592-0.004 3.121 0.627 4.247 1.753s1.757 2.654 1.753 4.247c0 3.314-2.686 6-6 6s-6-2.686-6-6c0-3.314 2.686-6 6-6zM12.333 16.323c0 2.025 1.642 3.667 3.667 3.667s3.667-1.642 3.667-3.667c0-2.025-1.642-3.667-3.667-3.667s-3.667 1.642-3.667 3.667z"></path>
    </symbol>
    <symbol id="icon-instagram-nopath" viewBox="0 0 32 32">
      <path d="M21.333 4.323h-10.667c-3.682 0-6.667 2.985-6.667 6.667v10.667c0 3.682 2.985 6.667 6.667 6.667h10.667c3.682 0 6.667-2.985 6.667-6.667v-10.667c0-3.682-2.985-6.667-6.667-6.667zM25.667 21.656c-0.007 2.39-1.943 4.326-4.333 4.333h-10.667c-2.39-0.007-4.326-1.943-4.333-4.333v-10.667c0.007-2.39 1.943-4.326 4.333-4.333h10.667c2.39 0.007 4.326 1.943 4.333 4.333v10.667zM22.333 11.323c-0.736 0-1.333-0.597-1.333-1.333s0.597-1.333 1.333-1.333c0.736 0 1.333 0.597 1.333 1.333s-0.597 1.333-1.333 1.333zM16 10.323c1.592-0.004 3.121 0.627 4.247 1.753s1.757 2.654 1.753 4.247c0 3.314-2.686 6-6 6s-6-2.686-6-6c0-3.314 2.686-6 6-6zM12.333 16.323c0 2.025 1.642 3.667 3.667 3.667s3.667-1.642 3.667-3.667c0-2.025-1.642-3.667-3.667-3.667s-3.667 1.642-3.667 3.667z"></path>
    </symbol>
    <symbol id="icon-facebook" viewBox="0 0 33 32">
      <path d="M30 16.405C30 8.996 24.031 2.99 16.667 2.99S3.334 8.996 3.334 16.405c0 6.696 4.876 12.245 11.25 13.252v-9.374h-3.385v-3.878h3.385V13.45c0-3.362 1.991-5.219 5.036-5.219 1.459 0 2.985.262 2.985.262v3.301h-1.681c-1.656 0-2.173 1.034-2.173 2.095v2.516h3.698l-.591 3.878h-3.107v9.374c6.374-1.006 11.25-6.556 11.25-13.252z"/>
    </symbol>
    <symbol id="icon-check" viewBox="0 0 32 32">
      <path d="M26.472 10.44l-13.568 13.568c-0.12 0.121-0.284 0.189-0.454 0.189s-0.334-0.068-0.454-0.189l-6.899-6.899c-0.121-0.12-0.189-0.284-0.189-0.454s0.068-0.334 0.189-0.454l0.896-0.896c0.12-0.121 0.284-0.189 0.454-0.189s0.334 0.068 0.454 0.189l5.542 5.542 12.224-12.224c0.253-0.245 0.656-0.245 0.909 0l0.896 0.909c0.121 0.12 0.189 0.284 0.189 0.454s-0.068 0.334-0.189 0.454z"></path>
    </symbol>

  </defs>
</svg>