
<svg version="1.1" xmlns="http://www.w3.org/2000/svg" width="992" height="1024" viewBox="0 0 992 1024">

<g id="icomoon-ignore">

</g>

<path fill="#000" d="M501.303 111.973c-12.701 6.308-26.98 24.422-36.569 35.133-82.248 91.882-125.393 208.906-117.764 332.093 7.389 119.206 66.261 225.056 154.622 303.288 16.733-11.44 32.045-27.718 45.429-42.856 75.064-84.895 116.209-204.173 109.043-317.334-7.391-116.67-67.032-233.413-154.76-310.325z"></path>

<path fill="#000" d="M151.269 278.819c-0.243 0.413-0.521 0.809-0.73 1.24-4.683 9.532-6.037 24.657-7.223 35.237-6.185 55.021-1.067 110.184 18.282 162.279 48.346 130.15 160.094 225.954 283.647 282.748 1.455-0.016 0.48 0.1 2.7-1.192-7.55-12.351-18.078-23.392-26.789-34.998-13.326-18.119-25.4-37.118-36.136-56.863-37.848-69.642-55.946-146.231-55.89-225.222 0.016-22.433 0.531-44.842 7.019-66.49-11.585-12.861-25.784-23.699-39.563-34.128-44.415-33.612-89.165-57.003-145.316-62.611z"></path>

<path fill="#000" d="M852.911 279.363c-6.667 0.257-13.395 1.123-19.99 2.125-50.753 7.722-95.162 34.749-134.809 66.026-11.065 8.731-23.172 17.833-31.503 29.306 21.080 108.305-6.879 221.868-62.881 315.531-8.943 14.885-18.604 29.325-28.951 43.284-4.941 6.646-10.822 12.682-15.25 19.661l1.567 2.039c92.337-39.489 178.837-109.364 234.482-192.882 58.377-87.627 77.681-182.021 57.335-285.091z"></path>

<path fill="#000" d="M60.936 521.052c-14.724-1.756-47.718-3.614-60.062 4.244-0.62 1.856-0.807 2.039-0.873 4.293-0.245 8.637 5.398 21.57 8.323 29.625 19.584 55.603 53.111 105.255 97.369 144.196 86.641 76.607 198.945 104.094 312.362 96.8 21.422-2.238 43.504-3.732 64.096-10.296-95.025-29.226-185.418-88.94-250.911-163.506-16.098-18.336-27.902-39.622-43.566-58.058-29.732-34.995-83.639-44.247-126.74-47.297z"></path>

<path fill="#000" d="M968.735 523.954c-44.283-5.222-104.372 2.073-140.847 29.64-21.686 16.396-34.754 46.833-52.676 67.557-56.047 64.9-126.243 116.076-205.18 149.58-16.81 7.195-34.114 14.707-51.889 19.081l35.531 5.937c103.46 14.885 210.674-3.599 299.198-61.156 60.284-39.209 102.73-92.971 127.685-160.027 3.664-9.832 9.148-20.508 11.021-30.753 1.094-5.986 0.131-9.929-3.365-15.003-5.565-4.094-12.8-4.045-19.477-4.857z"></path>

<path fill="#000" d="M495.961 796.827c-17.999 6.398-36.11 11.521-54.992 14.589-32.529 5.271-70.319 3.729-99.545 20.671-21.58 12.516-43.68 41.826-49.781 66.131-1.118 4.459-0.794 4.824 1.49 8.52 22.586 8.14 44.522 6.202 67.001-1.159 54.139-17.706 109.327-57.161 135.826-108.752z"></path>

<path fill="#000" d="M506.15 796.96c-1.141-0.1-2.236 0.498-3.341 0.812 0.056 0.513 0.046 1.044 0.169 1.557 2.782 11.524 47.354 58.504 57.644 66.643 35.564 28.083 88.371 50.383 134.252 44.895 1.225-0.266 2.93-0.597 4.048-1.113 2.471-1.143 4.035-2.055 4.686-4.725 1.74-7.177-2.34-15.5-5.602-21.733-10.51-20.092-26.971-43.668-47.588-54.525-25.416-13.361-62.945-13.313-91.192-18.336-18.096-3.216-35.531-8.122-53.075-13.476z"></path>

</svg>
